<svg width="265" height="265" xmlns="http://www.w3.org/2000/svg" preserveAspectRatio="xMidYMid meet">
 <metadata>Created by potrace 1.11, written by Peter Selinger 2001-2013</metadata>

 <g>
  <title>background</title>
  <rect fill="none" id="canvas_background" height="402" width="582" y="-1" x="-1"/>
 </g>
 <g>
  <title>Layer 1</title>
  <g id="svg_1" fill="#000000" transform="translate(0,265) scale(0.10000000149011612,-0.10000000149011612) ">
   <path fill="#dc2828" stroke="#dc2828" id="svg_2" d="m1160,2579c-227,-26 -472,-138 -663,-302c-79,-68 -196,-212 -255,-312c-226,-387 -226,-883 0,-1270c124,-212 301,-377 523,-490c630,-320 1407,-45 1701,602c98,215 134,472 99,703c-36,237 -115,420 -266,611c-117,148 -251,254 -431,342c-220,108 -451,145 -708,116zm134,-951c122,-175 266,-383 321,-463l100,-146l3,353c2,194 0,371 -3,393c-9,64 -38,103 -82,110c-69,12 -73,15 -73,46l0,29l235,0l235,0l0,-30c0,-26 -4,-30 -37,-35c-75,-12 -107,-29 -125,-65c-16,-32 -18,-81 -18,-578l0,-543l-111,3l-112,3l-216,308c-119,169 -277,395 -351,501l-135,193l-3,-405c-1,-262 2,-418 8,-443c13,-48 57,-79 113,-79c36,0 37,-1 37,-35l0,-35l-235,0l-235,0l0,34c0,33 1,34 51,38c61,6 100,33 116,79c14,41 18,862 3,923c-12,55 -47,86 -106,94c-36,5 -50,12 -52,25c-9,47 -6,48 230,45l222,-3l220,-317z"/>
  </g>
 </g>
</svg>