<?xml version="1.0" standalone="no"?>
<!DOCTYPE svg PUBLIC "-//W3C//DTD SVG 20010904//EN"
 "http://www.w3.org/TR/2001/REC-SVG-20010904/DTD/svg10.dtd">
<svg version="1.0" xmlns="http://www.w3.org/2000/svg"
 width="265.000000pt" height="265.000000pt" viewBox="0 0 265.000000 265.000000"
 preserveAspectRatio="xMidYMid meet">
<metadata>
Created by potrace 1.11, written by Peter Selinger 2001-2013
</metadata>
<g transform="translate(0.000000,265.000000) scale(0.100000,-0.100000)"
fill="#000000" stroke="none">
<path d="M1160 2579 c-227 -26 -472 -138 -663 -302 -79 -68 -196 -212 -255
-312 -226 -387 -226 -883 0 -1270 124 -212 301 -377 523 -490 630 -320 1407
-45 1701 602 98 215 134 472 99 703 -36 237 -115 420 -266 611 -117 148 -251
254 -431 342 -220 108 -451 145 -708 116z m134 -951 c122 -175 266 -383 321
-463 l100 -146 3 353 c2 194 0 371 -3 393 -9 64 -38 103 -82 110 -69 12 -73
15 -73 46 l0 29 235 0 235 0 0 -30 c0 -26 -4 -30 -37 -35 -75 -12 -107 -29
-125 -65 -16 -32 -18 -81 -18 -578 l0 -543 -111 3 -112 3 -216 308 c-119 169
-277 395 -351 501 l-135 193 -3 -405 c-1 -262 2 -418 8 -443 13 -48 57 -79
113 -79 36 0 37 -1 37 -35 l0 -35 -235 0 -235 0 0 34 c0 33 1 34 51 38 61 6
100 33 116 79 14 41 18 862 3 923 -12 55 -47 86 -106 94 -36 5 -50 12 -52 25
-9 47 -6 48 230 45 l222 -3 220 -317z"/>
</g>
</svg>
